inDegrees=yes
name=motion_pendulo.mot
DataType=double
version=3
OpenSimVersion=4.4-2022-07-23-0e9fedc
endheader
time	q1	q2
0.105576038360595	197.3442736680306	-15.25788825759534
0.108973026275634	197.3442700383957	-14.12388834765297
0.124237060546875	199.4324404039745	-16.21205871774077
0.128983974456787	199.4324403380407	-11.07521575344925
0.14304494857788	199.4324403669845	-6.976818876395924
0.144016981124877	199.4324403939195	-5.084483815420497
0.162212133407592	210.7032222692515	-16.35526787082423
0.172016859054565	212.0709890304353	-17.72303245653949
0.177991867065429	213.026244972919	-18.67828839645656
0.184014081954956	213.0262449328621	-14.60106433827049
0.186981916427612	214.8665567642848	-16.44137619116737
0.191988945007324	214.8665567556475	-15.20521169279083
0.202978134155273	214.8665567263344	-11.61408657598102
0.219003915786743	217.2655791388631	-14.01310903282296
0.222978115081787	217.2655791208605	-13.11154729505719
0.228976964950561	217.2655791185609	-11.52500313911587
0.234972953796386	218.6832892657872	-12.94271329551266
0.23897385597229	218.6832892611515	-11.82361326158391
0.246968030929565	218.6832892597554	-10.3253236548217
0.250956058502197	218.6832892597554	-10.3253236548217
0.258960962295532	218.6832892602741	-8.944327773975235
0.265980958938598	219.6132521626765	-9.874290679794489
0.269973993301391	219.6132521606077	-8.78818733972018
0.273977756500244	220.432718644283	-9.607653825670756
0.27796983718872	220.4327186412445	-8.212894985374717
0.282968997955322	221.6361543506931	-9.416330702076083
0.286969184875488	221.636154346199	-8.21422799929368
0.293971061706542	222.3751787055054	-8.953252360649385
0.301975965499877	222.3751786791567	-6.017253664425843
0.306967973709106	222.4051124451771	-6.047187438111128
0.310980081558227	222.4051124448619	-5.372566461356763
0.316987991333007	222.4051124448619	-5.372566461356763
0.319971084594726	222.4052416232795	-4.716966341578853
0.32696795463562	222.3052359615245	-4.616960679905009
0.344997882843017	221.8470057973805	-4.158730515334259
0.35297679901123	221.3580574042234	-3.66978212208446
0.3619620800018311	220.9912801326185	-3.303004850782301
0.36597990989685	220.9912801321761	-2.512957798353251
0.371974945068359	220.5720528605416	-2.093730526533564
0.379970073699951	220.2332542177386	-1.754931883890567
0.384972095489501	220.2332542176071	-1.175311524989435
0.391978025436401	219.8051498958491	-0.7472072029290753
0.396971940994262	219.805149895634	-0.04256270591616
0.4009900093078611	219.3200933683646	0.4424938217836746
0.4079880714416501	219.3200933682645	1.113568097211141
0.414992809295654	218.821786423578	1.611875042402998
0.420984983444213	217.335485281504	3.098176199934044
0.4289910793304441	217.3354852872219	3.611997720051589
0.432971954345703	216.6254826791203	4.322000329875082
0.43797492980957	216.6254826796514	4.779855842364157
0.4509680271148681	215.9122384901143	5.493100033677184
0.456964969635009	215.912238490633	5.965698479601924
0.4619820117950431	215.1117050021011	6.766231970678919
0.466956138610839	214.2261023109571	7.651834662736405
0.472984075546264	214.2261023118089	8.317171939717168
0.476969957351684	213.365189454881	9.178084799783038
0.4819710254669181	213.3651894527781	10.70712735476616
0.486974000930786	212.4539680301277	11.61834878006034
0.491974830627441	212.4539680311103	12.16622395003457
0.4959728717803951	211.5413185536491	13.07887343135432
0.5009968280792231	211.5413185547093	13.3316686034148
0.505970001220703	210.6145099194422	14.25847724277572
0.509991884231567	210.6145099205133	14.48285621228399
0.5149939060211181	209.7055743485591	15.39179178810191
0.5189800262451171	209.7055743494099	15.9457436412009
0.5239710807800291	207.3998527312926	18.25146532230824
0.528994083404541	206.5252860087749	19.1260319852176
0.5349690914154051	206.5252860095017	19.23073600583688
0.5409688949584961	205.7684332128759	19.98758880468992
0.552974939346313	204.9147442012011	20.84127781733386
0.55995488166809	204.9147442018241	20.8991457342002
0.565958976745605	203.9031756143756	21.91071432694403
0.5719809532165521	203.9031756153543	21.98970784109818
0.576971054077148	202.6837580619593	23.2091254037193
0.581984043121337	202.6837580635333	23.18235743869386
0.5859749317169191	201.5143159124359	24.35179959790862
0.5919721126556391	201.5143159137276	24.32245840462103
0.5959811210632321	200.4202211003141	25.41655322466035
0.600965976715087	200.4202211013004	25.29297343439939
0.6049818992614741	199.558046153207	26.15514838571951
0.608983993530273	199.5580461536654	26.09397587330908
0.6139950752258301	198.3576835043783	27.29433853124898
0.6189801692962641	198.3576835055175	27.18889473322058
0.6249790191650391	197.4460932890248	28.10048495346839
0.6330161094665521	197.4460932894961	27.92875775694548
0.636975765228271	196.2817962920966	29.09305476204615
0.640974044799804	196.2817963228598	24.57987693717173
0.644963979721069	195.3542541896256	25.50741909688993
0.6569690704345701	195.3542541928205	23.40599569822959
0.6659579277038571	195.3542541907134	22.1012798642619
0.671973943710327	194.4909728683754	22.96456118884002
0.6759760379791261	194.4909728702773	21.15905333797732
0.68096899986267	193.7055102702538	21.94451594006179
0.6849699020385741	193.7055102704907	21.46853365476909
0.688964128494262	192.8299868022359	22.34405712451596
0.6959729194641111	191.7679922216423	23.40605170626779
0.7049729824066161	191.0707940981808	24.10324982784054
0.7109689712524411	191.0707940983053	23.51307362942222
0.7159659862518311	190.3979237700083	24.18594395837371
0.7209649085998531	190.3979237700854	23.8119763932435
0.7299561500549311	190.3979237700821	23.51562504060142
0.7379457950592041	189.7367674916791	24.17678131955438
0.742974996566772	189.7367674917358	23.90650417675462
0.7549910545349121	188.881917445654	24.76135422398269
0.762969017028808	187.2787874407556	26.36448423528173
0.7669661045074461	187.2787874409959	25.97739102585449
0.773957967758178	186.477788568815	26.77838989894571
0.7809588909149171	186.4777885688352	26.50046661964705
0.7849509716033931	185.5219778783287	27.45627731165216
0.790970802307128	185.5219778783503	27.1706772206941
0.7959680557250971	185.0030875071176	27.68956759216363
0.8009710311889641	185.0030875071208	27.3931041892244
0.8079779148101801	184.5025261219134	27.89366557464057
0.815963983535766	183.9997378468917	28.39645384966494
0.8249659538269041	183.9997378469028	27.3897111023892
0.8299930095672601	183.5523628272633	27.83708612227383
0.838971853256225	182.254548427451	29.13490052529925
0.848970890045166	181.7111413376518	29.67830761199399
0.8579771518707271	181.2561445805042	30.13330436904001
0.8669698238372801	181.2561445805093	29.56229431151161
0.8709690570831291	180.8113079003359	30.00713099183445
0.87696099281311	180.3870620143459	30.43137687780713
0.883976936340332	180.3870620143499	30.05699488438208
0.8889629840850831	179.9754046151305	30.46865228370835
0.8999779224395751	179.5741399247854	30.86991697404591
0.9039649963378901	179.5741399247906	30.48890886064926
0.908967971801757	178.7413778329278	31.3216709533453
0.9149839878082271	178.7413778329843	30.56312074087561
0.9229691028594971	178.7413778330179	29.4683083170334
0.9299709796905511	178.7413778329723	28.9647899816712
0.9349639415740961	178.1053305039839	29.60083731100638
0.9409730434417721	178.1053305040127	29.10288853357291
0.9459769725799561	177.8238304676869	29.38438856993793
0.9519801139831541	177.8238304677491	28.35911004579499
0.9609680175781251	177.6060471803443	28.5768933333019
0.9739708900451661	177.6060471883187	23.40750515769841
0.9779949188232421	177.4372988266283	23.57625352323839
0.9849798679351801	177.4372988273059	21.28938308922367
0.9909670352935791	177.1709277029916	21.5557542137069
0.998989105224609	176.9273351777723	21.79934673892536
1.003968954086303	176.9273351784502	19.47405528406804
1.008970022201538	176.6400332784691	19.76135718414906
1.015986919403076	176.6400332784997	18.94765968269923
1.025980949401855	176.3757506383471	19.21194232285797
1.031970977783203	176.3757506383924	18.27534349513866
1.035971164703369	175.8067268181274	18.84436731543074
1.043968915939331	175.8067268181863	17.9444525954569
1.048991918563842	175.8067268181939	16.99124096288606
1.068969964981079	175.6087587230967	17.18920905799181
1.076970100402832	175.2552046378373	17.54276314325569
1.080955982208252	175.2552046378879	16.61350832093965
1.086958169937133	175.092652618218	16.77606034061708
1.090969085693359	175.0926526191655	14.22980339546185
1.094972848892212	175.1421648420476	14.18029117271882
1.098970890045166	175.1421648421225	13.06518855388311
1.104972124099731	175.14216484258	10.92013506171108
1.109969854354858	175.2687079968084	10.79359190753619
1.114995002746582	175.2687079968722	9.696767004719758
1.119967937469482	175.4618179045834	9.503657097013919
1.12499189376831	175.4618179049114	7.493644882324158
1.13002610206604	175.6994850970771	7.255977690172445
1.134005069732666	175.6994850971249	6.109067465156956
1.137969970703125	176.0276797954423	5.78087276683967
1.141960859298706	176.0276797954454	5.208149146875535
1.147962808609008	177.9707663525105	3.265062589782552
